<svg xmlns="http://www.w3.org/2000/svg" viewBox="460 62 470 480">
<path fill-rule="evenodd" d="M 848.79 532.43 C841.99,533.82 824.80,533.99 701.79,533.88 C625.18,533.82 560.40,533.41 557.83,532.98 C544.81,530.78 529.79,524.33 519.52,516.54 C511.84,510.71 486.64,484.17 481.66,476.68 C476.74,469.26 472.59,460.08 469.76,450.29 L 467.50 442.50 L 467.50 145.50 L 469.79 137.60 C480.65,100.09 510.47,74.71 548.08,70.96 C554.92,70.28 604.67,70.04 693.00,70.27 C818.82,70.60 831.31,70.35 842.17,74.43 C844.14,75.17 846.07,76.05 848.61,77.11 C860.90,82.23 869.60,88.69 885.60,104.61 C902.19,121.12 909.16,130.61 914.12,143.46 C915.16,146.16 916.03,148.20 916.76,150.28 C920.52,161.01 920.52,173.06 920.50,284.16 C920.50,292.24 920.50,300.84 920.50,310.00 C920.50,319.14 920.50,327.73 920.50,335.79 C920.52,446.97 920.52,459.00 916.76,469.72 C916.03,471.80 915.16,473.83 914.12,476.52 C909.62,488.17 904.49,496.29 895.78,505.52 C882.33,519.78 866.58,528.80 848.79,532.43 ZM 541.00 504.52 C546.21,505.57 575.43,505.80 688.00,505.67 L 828.50 505.50 L 835.50 503.13 C844.52,500.09 855.03,494.78 861.47,490.02 C873.12,481.42 883.64,466.57 888.78,451.50 L 891.50 443.50 L 891.77 297.50 C891.78,290.42 891.79,283.67 891.81,277.23 C892.04,157.06 892.06,145.20 888.14,134.83 C887.50,133.14 886.76,131.48 885.90,129.41 C876.45,106.71 856.54,89.70 832.78,84.00 C824.73,82.07 820.69,82.01 684.91,82.01 C548.22,82.00 545.16,82.04 537.41,84.02 C506.54,91.88 484.11,116.85 479.04,149.00 C478.38,153.21 478.01,204.70 478.01,295.18 C478.01,300.49 478.01,305.59 478.01,310.51 C477.99,427.75 477.99,439.50 481.46,450.11 C482.00,451.74 482.61,453.34 483.32,455.29 C486.74,464.73 491.40,472.08 499.50,480.80 C510.75,492.93 525.58,501.40 541.00,504.52 ZM 712.79 451.63 C708.00,453.49 703.95,454.97 703.79,454.93 C702.13,454.51 681.99,445.60 677.00,443.07 C637.25,422.92 603.77,391.57 587.76,359.50 C578.78,341.52 572.67,320.47 571.31,302.84 L 570.71 295.08 L 563.52 288.62 C543.33,270.48 533.37,248.08 533.68,221.50 C533.96,196.43 543.19,175.45 561.52,158.20 C570.57,149.68 576.98,145.51 588.68,140.49 C615.88,128.83 650.02,132.93 674.24,150.75 C677.49,153.15 680.47,154.98 680.84,154.81 C681.22,154.64 686.80,151.66 693.24,148.20 L 704.95 141.89 L 713.60 147.00 C725.80,154.21 748.19,165.30 760.26,170.11 C778.69,177.45 807.61,184.65 826.00,186.46 C829.58,186.82 833.77,187.35 835.31,187.65 L 838.12 188.19 L 837.74 248.84 C837.36,307.17 837.26,309.88 835.12,319.50 C831.78,334.46 826.54,349.24 820.44,360.92 L 814.98 371.37 L 817.72 374.44 C819.23,376.12 822.90,380.06 825.89,383.19 L 831.32 388.88 L 830.15 413.19 C829.50,426.56 828.98,438.80 828.99,440.40 L 829.00 443.30 L 769.50 442.22 L 763.36 435.61 C759.98,431.97 756.97,429.00 756.69,429.00 C756.40,429.00 752.60,431.21 748.26,433.90 C737.95,440.29 723.68,447.43 712.79,451.63 ZM 614.66 224.15 C608.91,227.12 598.72,227.53 592.57,225.05 C586.33,222.53 580.63,216.99 577.32,210.22 C575.09,205.67 574.80,204.01 575.22,198.22 C575.77,190.54 578.23,185.01 583.16,180.35 C590.92,173.03 600.63,170.59 610.52,173.46 C618.62,175.82 626.19,183.41 628.56,191.54 C632.37,204.67 626.72,217.93 614.66,224.15 ZM 803.00 400.50 C801.13,402.43 799.27,404.00 798.85,404.00 C798.10,404.00 700.10,300.90 694.54,294.26 L 691.59 290.73 L 695.54 287.33 L 699.50 283.93 L 710.91 295.72 C728.06,313.42 802.21,391.80 804.45,394.58 L 806.39 397.00 Z" fill="currentColor"/>
</svg>
